Coordinates
version=1
nRows=14
nColumns=42
inDegrees=yes

Units are S.I. units (second, meters, Newtons, ...)
If the header above contains a line with 'inDegrees', this indicates whether rotational values are in degrees (yes) or radians (no).

endheader
time	pelvis_tilt	pelvis_list	pelvis_rotation	pelvis_tx	pelvis_ty	pelvis_tz	hip_flexion_r	hip_adduction_r	hip_rotation_r	knee_angle_r	knee_adduction_r	knee_angle_r_beta	ankle_angle_r	subtalar_angle_r	mtp_angle_r	hip_flexion_l	hip_adduction_l	hip_rotation_l	knee_angle_l	knee_adduction_l	knee_angle_l_beta	ankle_angle_l	subtalar_angle_l	mtp_angle_l	lumbar_extension	lumbar_bending	lumbar_rotation	arm_flex_r	arm_add_r	arm_rot_r	elbow_flex_r	pro_sup_r	wrist_flex_r	wrist_dev_r	arm_flex_l	arm_add_l	arm_rot_l	elbow_flex_l	pro_sup_l	wrist_flex_l	wrist_dev_l
      0.77000000	      8.42417394	     -0.79901141	    -10.27431147	     -0.83568119	      0.94779304	      0.28953360	    -25.56725770	      2.02841210	     -7.46831985	      2.71772293	     -1.16584112	      0.04743321	     28.00111031	     24.66404141	     -7.70044047	     14.98588412	     -3.27941910	    -31.13318488	      0.94775493	      1.00891303	      0.01654144	     11.62850036	     26.84023508	     -7.70044047	    -22.70034270	     -1.08709577	      7.26111693	      7.24920075	    -18.24964106	     12.59754787	     44.28418301	     90.00000001	      0.00000000	      0.00000000	    -15.44690569	     -5.40134735	     -2.19819762	     34.52903028	     90.00000001	      0.00000000	      0.00000000
      0.78000000	      8.37723824	     -0.94024619	    -10.69351278	     -0.82097598	      0.94456652	      0.28995003	    -26.36838474	      1.87606687	     -6.87092755	      3.04679700	     -1.25467879	      0.05317664	     28.24523670	     24.01508171	     -7.69035531	     15.75929747	     -3.73003330	    -33.79368893	      1.15139727	      1.26989454	      0.02009567	     12.15310241	     31.03225207	     -7.69035531	    -22.56352391	     -1.04494822	      7.66355066	      7.39744959	    -18.48139302	     12.84517589	     44.24278077	     90.00000001	      0.00000000	      0.00000000	    -15.77456003	     -5.07145573	     -2.98809044	     34.50523070	     90.00000001	      0.00000000	      0.00000000
      0.79000000	      8.29246802	     -0.99795303	    -10.95570665	     -0.80628373	      0.94146636	      0.29026799	    -27.04574010	      1.67145519	     -6.66891627	      3.51008338	     -1.31071710	      0.06126251	     28.48678030	     23.94862535	     -7.68857215	     16.26496444	     -3.83390420	    -33.62659357	      1.04220765	      1.37576210	      0.01818996	     12.04330150	     31.16135501	     -7.68857215	    -22.40563294	     -1.06648058	      7.92707197	      7.47127079	    -18.56485266	     12.77982567	     44.10138264	     90.00000001	      0.00000000	      0.00000000	    -16.11057649	     -4.99398644	     -3.06595824	     34.65593165	     90.00000001	      0.00000000	      0.00000000
      0.80000000	      8.39538437	     -0.79109779	    -11.43178076	     -0.79117574	      0.93885314	      0.29057040	    -27.82631894	      0.98122913	     -6.42905501	      4.11754907	     -1.26703384	      0.07186479	     28.75636257	     23.87277787	     -7.68516137	     16.47823168	     -3.57809961	    -33.54726009	      1.12672030	      1.23489108	      0.01966498	     11.86575688	     31.18918921	     -7.68516137	    -22.37322671	     -1.46177567	      8.22713599	      7.49928778	    -18.59591924	     12.69466571	     43.90674200	     90.00000001	      0.00000000	      0.00000000	    -16.43075023	     -4.89430353	     -3.34340199	     34.79086474	     90.00000001	      0.00000000	      0.00000000
      0.81000000	      8.48804622	     -0.42351504	    -11.87384569	     -0.77582619	      0.93645202	      0.29063058	    -28.38210916	      0.05717848	     -6.91526632	      5.07957979	     -1.18959383	      0.08865539	     28.95679218	     24.55531817	     -7.66927069	     16.67171947	     -3.02642568	    -32.74817079	      1.42647574	      0.82637161	      0.02489670	     11.54679976	     30.25880391	     -7.66927069	    -22.27753807	     -1.99714086	      8.45719396	      7.42562159	    -18.61608115	     12.59172596	     43.70914437	     90.00000001	      0.00000000	      0.00000000	    -16.63838212	     -4.80482991	     -3.74466822	     34.81567504	     90.00000001	      0.00000000	      0.00000000
      0.82000000	      8.54435003	      0.02440510	    -12.32660554	     -0.76023654	      0.93429104	      0.29054539	    -28.79074700	     -0.99966038	     -7.54824531	      6.23141090	     -1.10799740	      0.10875864	     29.06968506	     25.36178717	     -7.65591933	     16.84549770	     -2.34654433	    -31.56670001	      1.96889160	      0.30913506	      0.03436364	     11.08654742	     28.64382006	     -7.65591933	    -22.10809407	     -2.59994034	      8.65920220	      7.26890815	    -18.56456877	     12.38556878	     43.43426700	     90.00000001	      0.00000000	      0.00000000	    -16.81574488	     -4.76874337	     -3.96155467	     34.80430867	     90.00000001	      0.00000000	      0.00000000
      0.83000000	      8.46284362	      0.41709774	    -12.71835859	     -0.74457028	      0.93229739	      0.29049129	    -29.08875526	     -1.92186444	     -7.69689181	      7.33111227	     -1.04710461	      0.12795205	     28.69992958	     25.39343103	     -7.65282894	     17.37457466	     -1.91959078	    -30.96788171	      3.41408102	     -0.19071308	      0.05958695	     10.84787965	     27.62264758	     -7.65282894	    -21.80630299	     -3.11670186	      8.83712609	      7.05368861	    -18.47585739	     12.21170006	     43.08261421	     90.00000001	      0.00000000	      0.00000000	    -16.91346872	     -4.78241594	     -4.05990791	     34.71214590	     90.00000001	      0.00000000	      0.00000000
      0.84000000	      8.55827321	      1.10629827	    -13.10979272	     -0.72850413	      0.93076382	      0.29012072	    -29.20915389	     -3.31249367	     -9.07485413	      9.04251398	     -1.01673944	      0.15782164	     28.62235928	     27.17924281	     -7.64171746	     17.62971857	     -1.04018468	    -30.06266411	      4.86364471	     -0.72209388	      0.08488661	     10.24279272	     25.94441633	     -7.64171746	    -21.60440975	     -3.96342308	      8.89685064	      6.73645909	    -18.28615758	     11.76445356	     42.73502309	     90.00000001	      0.00000000	      0.00000000	    -16.95983213	     -4.81803100	     -4.32384197	     34.61708004	     90.00000001	      0.00000000	      0.00000000
      0.85000000	      8.47145049	      1.52169369	    -13.31955934	     -0.71251944	      0.92948960	      0.28972367	    -29.34909201	     -4.21780467	     -9.20421748	     10.44166217	     -0.95550815	      0.18224138	     27.68198482	     27.04998242	     -7.63938878	     18.23833187	     -0.61252438	    -29.51841024	      7.04583833	     -1.20803150	      0.12297308	      9.77718775	     24.83554146	     -7.63938878	    -21.30521304	     -4.44931964	      8.89867660	      6.40088111	    -18.17490689	     11.62951701	     42.32419260	     90.00000001	      0.00000000	      0.00000000	    -16.91237068	     -4.91021065	     -4.34256779	     34.42450882	     90.00000001	      0.00000000	      0.00000000
      0.86000000	      8.43657408	      1.98538676	    -13.48971905	     -0.69629871	      0.92867584	      0.28927421	    -29.41983642	     -5.19657390	     -9.45426459	     12.04928507	     -0.89244270	      0.21029970	     26.50879425	     27.02529649	     -7.63728538	     18.75377970	     -0.15021918	    -29.09426886	      9.37295275	     -1.61807914	      0.16358889	      9.23567260	     23.76802392	     -7.63728538	    -21.03921292	     -4.98960246	      8.79726410	      6.01320000	    -17.94598545	     11.37801351	     41.88637672	     90.00000001	      0.00000000	      0.00000000	    -16.81245639	     -4.99761981	     -4.38524095	     34.18879088	     90.00000001	      0.00000000	      0.00000000
      0.87000000	      8.46899482	      2.53798490	    -13.58572106	     -0.67967568	      0.92830520	      0.28882727	    -29.42957209	     -6.17405476	    -10.00431952	     13.84210202	     -1.08187173	      0.24159026	     25.02969730	     27.16730842	     -7.63467886	     19.17728943	      0.39782874	    -28.91929268	     11.82847186	     -1.98205771	      0.20644578	      8.67148142	     22.72615422	     -7.63467886	    -20.79588918	     -5.63967701	      8.66259042	      5.48689768	    -17.64768525	     10.97685001	     41.36237245	     90.00000001	      0.00000000	      0.00000000	    -16.65093940	     -5.16928957	     -4.48139671	     33.97022817	     90.00000001	      0.00000000	      0.00000000
      0.88000000	      8.60416247	      3.02093446	    -13.59758001	     -0.66300048	      0.92852730	      0.28831804	    -29.42557152	     -7.09518077	    -10.44399498	     15.87083155	     -1.22040296	      0.27699827	     23.31335832	     27.29536733	     -7.63199532	     19.35842340	      0.95377715	    -28.65326980	     14.12503065	     -2.33538439	      0.24652829	      8.13836681	     21.96463342	     -7.63199532	    -20.70835374	     -6.21940865	      8.42181055	      4.96243759	    -17.31652001	     10.57194685	     40.85954241	     90.00000001	      0.00000000	      0.00000000	    -16.40847851	     -5.36962764	     -4.55521897	     33.72000831	     90.00000001	      0.00000000	      0.00000000
      0.89000000	      8.82727976	      3.40858124	    -13.50401766	     -0.64632459	      0.92937986	      0.28750731	    -29.40880604	     -7.92001918	    -10.57334818	     18.10265706	     -1.26143430	      0.31595097	     21.44798103	     27.07951981	     -7.63016370	     19.27027937	      1.49773271	    -28.15191838	     16.19593260	     -2.56026820	      0.28267235	      7.72371296	     21.39350879	     -7.63016370	    -20.78745720	     -6.66473119	      8.08929497	      4.43100864	    -17.04338186	     10.29539439	     40.34612212	     90.00000001	      0.00000000	      0.00000000	    -16.05649389	     -5.52685596	     -4.57663450	     33.46413571	     90.00000001	      0.00000000	      0.00000000
      0.90000000	      9.17412589	      3.87592668	    -13.37571783	     -0.62939461	      0.93075365	      0.28684380	    -29.33903040	     -8.72672676	    -10.93366140	     20.54655480	     -1.61959161	      0.35860503	     19.07227191	     26.66206099	     -7.62851593	     18.95235780	      2.18786219	    -27.88825043	     18.10171324	     -2.84376072	      0.31593450	      7.43795080	     20.80178157	     -7.62851593	    -20.96572829	     -7.23411108	      7.68824219	      3.83707071	    -16.68444232	      9.92414732	     39.79626803	     90.00000001	      0.00000000	      0.00000000	    -15.68254572	     -5.79063624	     -4.65567117	     33.25003341	     90.00000001	      0.00000000	      0.00000000
